<?xml version="1.0" encoding="UTF-8" standalone="no"?>
<!DOCTYPE svg PUBLIC "-//W3C//DTD SVG 1.1//EN"
 "http://www.w3.org/Graphics/SVG/1.1/DTD/svg11.dtd">
<!-- Generated by graphviz version 2.43.0 (0)
 -->
<!-- Title: Tree Pages: 1 -->
<svg width="2954pt" height="848pt"
 viewBox="0.00 0.00 2953.50 848.00" xmlns="http://www.w3.org/2000/svg" xmlns:xlink="http://www.w3.org/1999/xlink">
<g id="graph0" class="graph" transform="scale(1 1) rotate(0) translate(4 844)">
<title>Tree</title>
<polygon fill="white" stroke="transparent" points="-4,4 -4,-844 2949.5,-844 2949.5,4 -4,4"/>
<!-- 0 -->
<g id="node1" class="node">
<title>0</title>
<polygon fill="#ffffff" stroke="black" points="2143,-840 1712,-840 1712,-742 2143,-742 2143,-840"/>
<text text-anchor="middle" x="1927.5" y="-824.8" font-family="Helvetica,sans-Serif" font-size="14.00">ð_percentage &lt;= 0.004</text>
<text text-anchor="middle" x="1927.5" y="-809.8" font-family="Helvetica,sans-Serif" font-size="14.00">gini = 0.944</text>
<text text-anchor="middle" x="1927.5" y="-794.8" font-family="Helvetica,sans-Serif" font-size="14.00">samples = 6139</text>
<text text-anchor="middle" x="1927.5" y="-779.8" font-family="Helvetica,sans-Serif" font-size="14.00">value = [301, 344, 369, 358, 358, 328, 345, 305, 347, 366</text>
<text text-anchor="middle" x="1927.5" y="-764.8" font-family="Helvetica,sans-Serif" font-size="14.00">333, 345, 373, 287, 315, 344, 367, 354]</text>
<text text-anchor="middle" x="1927.5" y="-749.8" font-family="Helvetica,sans-Serif" font-size="14.00">class = Portuguese</text>
</g>
<!-- 1 -->
<g id="node2" class="node">
<title>1</title>
<polygon fill="#ffffff" stroke="black" points="1938.5,-706 1516.5,-706 1516.5,-608 1938.5,-608 1938.5,-706"/>
<text text-anchor="middle" x="1727.5" y="-690.8" font-family="Helvetica,sans-Serif" font-size="14.00">ı_percentage &lt;= 0.003</text>
<text text-anchor="middle" x="1727.5" y="-675.8" font-family="Helvetica,sans-Serif" font-size="14.00">gini = 0.941</text>
<text text-anchor="middle" x="1727.5" y="-660.8" font-family="Helvetica,sans-Serif" font-size="14.00">samples = 5825</text>
<text text-anchor="middle" x="1727.5" y="-645.8" font-family="Helvetica,sans-Serif" font-size="14.00">value = [301, 344, 369, 358, 358, 328, 345, 305, 33, 366</text>
<text text-anchor="middle" x="1727.5" y="-630.8" font-family="Helvetica,sans-Serif" font-size="14.00">333, 345, 373, 287, 315, 344, 367, 354]</text>
<text text-anchor="middle" x="1727.5" y="-615.8" font-family="Helvetica,sans-Serif" font-size="14.00">class = Portuguese</text>
</g>
<!-- 0&#45;&gt;1 -->
<g id="edge1" class="edge">
<title>0&#45;&gt;1</title>
<path fill="none" stroke="black" d="M1854.73,-741.97C1839.84,-732.14 1824.08,-721.74 1808.91,-711.73"/>
<polygon fill="black" stroke="black" points="1810.83,-708.8 1800.55,-706.21 1806.97,-714.64 1810.83,-708.8"/>
<text text-anchor="middle" x="1805.57" y="-727.01" font-family="Helvetica,sans-Serif" font-size="14.00">True</text>
</g>
<!-- 1556 -->
<g id="node31" class="node">
<title>1556</title>
<polygon fill="#39d7e5" stroke="black" points="2298,-698.5 1957,-698.5 1957,-615.5 2298,-615.5 2298,-698.5"/>
<text text-anchor="middle" x="2127.5" y="-683.3" font-family="Helvetica,sans-Serif" font-size="14.00">gini = 0.0</text>
<text text-anchor="middle" x="2127.5" y="-668.3" font-family="Helvetica,sans-Serif" font-size="14.00">samples = 314</text>
<text text-anchor="middle" x="2127.5" y="-653.3" font-family="Helvetica,sans-Serif" font-size="14.00">value = [0, 0, 0, 0, 0, 0, 0, 0, 314, 0, 0, 0, 0, 0</text>
<text text-anchor="middle" x="2127.5" y="-638.3" font-family="Helvetica,sans-Serif" font-size="14.00">0, 0, 0, 0]</text>
<text text-anchor="middle" x="2127.5" y="-623.3" font-family="Helvetica,sans-Serif" font-size="14.00">class = Icelandic</text>
</g>
<!-- 0&#45;&gt;1556 -->
<g id="edge30" class="edge">
<title>0&#45;&gt;1556</title>
<path fill="none" stroke="black" d="M2000.27,-741.97C2018.96,-729.63 2039.03,-716.39 2057.58,-704.15"/>
<polygon fill="black" stroke="black" points="2059.56,-707.03 2065.98,-698.6 2055.71,-701.19 2059.56,-707.03"/>
<text text-anchor="middle" x="2060.96" y="-719.39" font-family="Helvetica,sans-Serif" font-size="14.00">False</text>
</g>
<!-- 2 -->
<g id="node3" class="node">
<title>2</title>
<polygon fill="#ffffff" stroke="black" points="1743.5,-572 1321.5,-572 1321.5,-474 1743.5,-474 1743.5,-572"/>
<text text-anchor="middle" x="1532.5" y="-556.8" font-family="Helvetica,sans-Serif" font-size="14.00">ä_percentage &lt;= 0.009</text>
<text text-anchor="middle" x="1532.5" y="-541.8" font-family="Helvetica,sans-Serif" font-size="14.00">gini = 0.939</text>
<text text-anchor="middle" x="1532.5" y="-526.8" font-family="Helvetica,sans-Serif" font-size="14.00">samples = 5513</text>
<text text-anchor="middle" x="1532.5" y="-511.8" font-family="Helvetica,sans-Serif" font-size="14.00">value = [301, 344, 369, 358, 358, 328, 345, 305, 33, 366</text>
<text text-anchor="middle" x="1532.5" y="-496.8" font-family="Helvetica,sans-Serif" font-size="14.00">333, 345, 373, 287, 315, 344, 55, 354]</text>
<text text-anchor="middle" x="1532.5" y="-481.8" font-family="Helvetica,sans-Serif" font-size="14.00">class = Portuguese</text>
</g>
<!-- 1&#45;&gt;2 -->
<g id="edge2" class="edge">
<title>1&#45;&gt;2</title>
<path fill="none" stroke="black" d="M1656.55,-607.97C1642.17,-598.24 1626.95,-587.93 1612.28,-578.01"/>
<polygon fill="black" stroke="black" points="1613.97,-574.92 1603.73,-572.21 1610.04,-580.72 1613.97,-574.92"/>
</g>
<!-- 1555 -->
<g id="node30" class="node">
<title>1555</title>
<polygon fill="#e53964" stroke="black" points="2085,-564.5 1762,-564.5 1762,-481.5 2085,-481.5 2085,-564.5"/>
<text text-anchor="middle" x="1923.5" y="-549.3" font-family="Helvetica,sans-Serif" font-size="14.00">gini = 0.0</text>
<text text-anchor="middle" x="1923.5" y="-534.3" font-family="Helvetica,sans-Serif" font-size="14.00">samples = 312</text>
<text text-anchor="middle" x="1923.5" y="-519.3" font-family="Helvetica,sans-Serif" font-size="14.00">value = [0, 0, 0, 0, 0, 0, 0, 0, 0, 0, 0, 0, 0, 0</text>
<text text-anchor="middle" x="1923.5" y="-504.3" font-family="Helvetica,sans-Serif" font-size="14.00">0, 0, 312, 0]</text>
<text text-anchor="middle" x="1923.5" y="-489.3" font-family="Helvetica,sans-Serif" font-size="14.00">class = Turkish</text>
</g>
<!-- 1&#45;&gt;1555 -->
<g id="edge29" class="edge">
<title>1&#45;&gt;1555</title>
<path fill="none" stroke="black" d="M1798.81,-607.97C1816.97,-595.75 1836.45,-582.63 1854.48,-570.48"/>
<polygon fill="black" stroke="black" points="1856.87,-573.09 1863.21,-564.6 1852.96,-567.29 1856.87,-573.09"/>
</g>
<!-- 3 -->
<g id="node4" class="node">
<title>3</title>
<polygon fill="#ffffff" stroke="black" points="1396,-438 983,-438 983,-340 1396,-340 1396,-438"/>
<text text-anchor="middle" x="1189.5" y="-422.8" font-family="Helvetica,sans-Serif" font-size="14.00">w_percentage &lt;= 0.004</text>
<text text-anchor="middle" x="1189.5" y="-407.8" font-family="Helvetica,sans-Serif" font-size="14.00">gini = 0.933</text>
<text text-anchor="middle" x="1189.5" y="-392.8" font-family="Helvetica,sans-Serif" font-size="14.00">samples = 4876</text>
<text text-anchor="middle" x="1189.5" y="-377.8" font-family="Helvetica,sans-Serif" font-size="14.00">value = [301, 344, 369, 358, 51, 328, 302, 305, 33, 366</text>
<text text-anchor="middle" x="1189.5" y="-362.8" font-family="Helvetica,sans-Serif" font-size="14.00">333, 345, 373, 279, 315, 65, 55, 354]</text>
<text text-anchor="middle" x="1189.5" y="-347.8" font-family="Helvetica,sans-Serif" font-size="14.00">class = Portuguese</text>
</g>
<!-- 2&#45;&gt;3 -->
<g id="edge3" class="edge">
<title>2&#45;&gt;3</title>
<path fill="none" stroke="black" d="M1407.7,-473.97C1380.54,-463.52 1351.69,-452.42 1324.17,-441.83"/>
<polygon fill="black" stroke="black" points="1325.09,-438.43 1314.5,-438.1 1322.57,-444.96 1325.09,-438.43"/>
</g>
<!-- 1508 -->
<g id="node17" class="node">
<title>1508</title>
<polygon fill="#f3fdf0" stroke="black" points="2076.5,-438 1726.5,-438 1726.5,-340 2076.5,-340 2076.5,-438"/>
<text text-anchor="middle" x="1901.5" y="-422.8" font-family="Helvetica,sans-Serif" font-size="14.00">r_percentage &lt;= 0.04</text>
<text text-anchor="middle" x="1901.5" y="-407.8" font-family="Helvetica,sans-Serif" font-size="14.00">gini = 0.571</text>
<text text-anchor="middle" x="1901.5" y="-392.8" font-family="Helvetica,sans-Serif" font-size="14.00">samples = 637</text>
<text text-anchor="middle" x="1901.5" y="-377.8" font-family="Helvetica,sans-Serif" font-size="14.00">value = [0, 0, 0, 0, 307, 0, 43, 0, 0, 0, 0, 0, 0, 8</text>
<text text-anchor="middle" x="1901.5" y="-362.8" font-family="Helvetica,sans-Serif" font-size="14.00">0, 279, 0, 0]</text>
<text text-anchor="middle" x="1901.5" y="-347.8" font-family="Helvetica,sans-Serif" font-size="14.00">class = Finnish</text>
</g>
<!-- 2&#45;&gt;1508 -->
<g id="edge16" class="edge">
<title>2&#45;&gt;1508</title>
<path fill="none" stroke="black" d="M1666.76,-473.97C1696.23,-463.43 1727.56,-452.22 1757.4,-441.55"/>
<polygon fill="black" stroke="black" points="1758.79,-444.77 1767.03,-438.1 1756.43,-438.18 1758.79,-444.77"/>
</g>
<!-- 4 -->
<g id="node5" class="node">
<title>4</title>
<polygon fill="#fffeff" stroke="black" points="839.5,-304 399.5,-304 399.5,-206 839.5,-206 839.5,-304"/>
<text text-anchor="middle" x="619.5" y="-288.8" font-family="Helvetica,sans-Serif" font-size="14.00">ě_percentage &lt;= 0.001</text>
<text text-anchor="middle" x="619.5" y="-273.8" font-family="Helvetica,sans-Serif" font-size="14.00">gini = 0.919</text>
<text text-anchor="middle" x="619.5" y="-258.8" font-family="Helvetica,sans-Serif" font-size="14.00">samples = 3538</text>
<text text-anchor="middle" x="619.5" y="-243.8" font-family="Helvetica,sans-Serif" font-size="14.00">value = [301, 344, 110, 94, 51, 327, 131, 305, 33, 363, 333</text>
<text text-anchor="middle" x="619.5" y="-228.8" font-family="Helvetica,sans-Serif" font-size="14.00">36, 373, 279, 315, 65, 55, 23]</text>
<text text-anchor="middle" x="619.5" y="-213.8" font-family="Helvetica,sans-Serif" font-size="14.00">class = Portuguese</text>
</g>
<!-- 3&#45;&gt;4 -->
<g id="edge4" class="edge">
<title>3&#45;&gt;4</title>
<path fill="none" stroke="black" d="M982.91,-340.16C935.37,-329.15 884.67,-317.41 836.69,-306.3"/>
<polygon fill="black" stroke="black" points="837.35,-302.86 826.82,-304.01 835.77,-309.68 837.35,-302.86"/>
</g>
<!-- 1329 -->
<g id="node10" class="node">
<title>1329</title>
<polygon fill="#fefbfb" stroke="black" points="1378,-304 1001,-304 1001,-206 1378,-206 1378,-304"/>
<text text-anchor="middle" x="1189.5" y="-288.8" font-family="Helvetica,sans-Serif" font-size="14.00">z_percentage &lt;= 0.004</text>
<text text-anchor="middle" x="1189.5" y="-273.8" font-family="Helvetica,sans-Serif" font-size="14.00">gini = 0.793</text>
<text text-anchor="middle" x="1189.5" y="-258.8" font-family="Helvetica,sans-Serif" font-size="14.00">samples = 1338</text>
<text text-anchor="middle" x="1189.5" y="-243.8" font-family="Helvetica,sans-Serif" font-size="14.00">value = [0, 0, 259, 264, 0, 1, 171, 0, 0, 3, 0, 309, 0</text>
<text text-anchor="middle" x="1189.5" y="-228.8" font-family="Helvetica,sans-Serif" font-size="14.00">0, 0, 0, 0, 331]</text>
<text text-anchor="middle" x="1189.5" y="-213.8" font-family="Helvetica,sans-Serif" font-size="14.00">class = Welsh</text>
</g>
<!-- 3&#45;&gt;1329 -->
<g id="edge9" class="edge">
<title>3&#45;&gt;1329</title>
<path fill="none" stroke="black" d="M1189.5,-339.97C1189.5,-331.69 1189.5,-323 1189.5,-314.48"/>
<polygon fill="black" stroke="black" points="1193,-314.21 1189.5,-304.21 1186,-314.21 1193,-314.21"/>
</g>
<!-- 5 -->
<g id="node6" class="node">
<title>5</title>
<polygon fill="#fffeff" stroke="black" points="431,-170 0,-170 0,-72 431,-72 431,-170"/>
<text text-anchor="middle" x="215.5" y="-154.8" font-family="Helvetica,sans-Serif" font-size="14.00">k_percentage &lt;= 0.006</text>
<text text-anchor="middle" x="215.5" y="-139.8" font-family="Helvetica,sans-Serif" font-size="14.00">gini = 0.915</text>
<text text-anchor="middle" x="215.5" y="-124.8" font-family="Helvetica,sans-Serif" font-size="14.00">samples = 3326</text>
<text text-anchor="middle" x="215.5" y="-109.8" font-family="Helvetica,sans-Serif" font-size="14.00">value = [89, 344, 110, 94, 51, 327, 131, 305, 33, 363, 333</text>
<text text-anchor="middle" x="215.5" y="-94.8" font-family="Helvetica,sans-Serif" font-size="14.00">36, 373, 279, 315, 65, 55, 23]</text>
<text text-anchor="middle" x="215.5" y="-79.8" font-family="Helvetica,sans-Serif" font-size="14.00">class = Portuguese</text>
</g>
<!-- 4&#45;&gt;5 -->
<g id="edge5" class="edge">
<title>4&#45;&gt;5</title>
<path fill="none" stroke="black" d="M472.5,-205.97C439.96,-195.34 405.35,-184.03 372.42,-173.27"/>
<polygon fill="black" stroke="black" points="373.32,-169.88 362.73,-170.1 371.14,-176.54 373.32,-169.88"/>
</g>
<!-- 1328 -->
<g id="node9" class="node">
<title>1328</title>
<polygon fill="#e58139" stroke="black" points="790,-162.5 449,-162.5 449,-79.5 790,-79.5 790,-162.5"/>
<text text-anchor="middle" x="619.5" y="-147.3" font-family="Helvetica,sans-Serif" font-size="14.00">gini = 0.0</text>
<text text-anchor="middle" x="619.5" y="-132.3" font-family="Helvetica,sans-Serif" font-size="14.00">samples = 212</text>
<text text-anchor="middle" x="619.5" y="-117.3" font-family="Helvetica,sans-Serif" font-size="14.00">value = [212, 0, 0, 0, 0, 0, 0, 0, 0, 0, 0, 0, 0, 0</text>
<text text-anchor="middle" x="619.5" y="-102.3" font-family="Helvetica,sans-Serif" font-size="14.00">0, 0, 0, 0]</text>
<text text-anchor="middle" x="619.5" y="-87.3" font-family="Helvetica,sans-Serif" font-size="14.00">class = Czech</text>
</g>
<!-- 4&#45;&gt;1328 -->
<g id="edge8" class="edge">
<title>4&#45;&gt;1328</title>
<path fill="none" stroke="black" d="M619.5,-205.97C619.5,-195.25 619.5,-183.84 619.5,-172.99"/>
<polygon fill="black" stroke="black" points="623,-172.82 619.5,-162.82 616,-172.82 623,-172.82"/>
</g>
<!-- 6 -->
<g id="node7" class="node">
<title>6</title>
<polygon fill="#c0c0c0" stroke="black" points="206.5,-36 152.5,-36 152.5,0 206.5,0 206.5,-36"/>
<text text-anchor="middle" x="179.5" y="-14.3" font-family="Helvetica,sans-Serif" font-size="14.00">(...)</text>
</g>
<!-- 5&#45;&gt;6 -->
<g id="edge6" class="edge">
<title>5&#45;&gt;6</title>
<path fill="none" stroke="black" d="M198.34,-71.87C195.13,-62.86 191.89,-53.76 189.02,-45.71"/>
<polygon fill="black" stroke="black" points="192.27,-44.39 185.61,-36.15 185.67,-46.74 192.27,-44.39"/>
</g>
<!-- 903 -->
<g id="node8" class="node">
<title>903</title>
<polygon fill="#c0c0c0" stroke="black" points="278.5,-36 224.5,-36 224.5,0 278.5,0 278.5,-36"/>
<text text-anchor="middle" x="251.5" y="-14.3" font-family="Helvetica,sans-Serif" font-size="14.00">(...)</text>
</g>
<!-- 5&#45;&gt;903 -->
<g id="edge7" class="edge">
<title>5&#45;&gt;903</title>
<path fill="none" stroke="black" d="M232.66,-71.87C235.87,-62.86 239.11,-53.76 241.98,-45.71"/>
<polygon fill="black" stroke="black" points="245.33,-46.74 245.39,-36.15 238.73,-44.39 245.33,-46.74"/>
</g>
<!-- 1330 -->
<g id="node11" class="node">
<title>1330</title>
<polygon fill="#fbe1df" stroke="black" points="1158.5,-170 808.5,-170 808.5,-72 1158.5,-72 1158.5,-170"/>
<text text-anchor="middle" x="983.5" y="-154.8" font-family="Helvetica,sans-Serif" font-size="14.00">y_percentage &lt;= 0.042</text>
<text text-anchor="middle" x="983.5" y="-139.8" font-family="Helvetica,sans-Serif" font-size="14.00">gini = 0.658</text>
<text text-anchor="middle" x="983.5" y="-124.8" font-family="Helvetica,sans-Serif" font-size="14.00">samples = 731</text>
<text text-anchor="middle" x="983.5" y="-109.8" font-family="Helvetica,sans-Serif" font-size="14.00">value = [0, 0, 61, 253, 0, 1, 71, 0, 0, 0, 0, 14, 0</text>
<text text-anchor="middle" x="983.5" y="-94.8" font-family="Helvetica,sans-Serif" font-size="14.00">0, 0, 0, 0, 331]</text>
<text text-anchor="middle" x="983.5" y="-79.8" font-family="Helvetica,sans-Serif" font-size="14.00">class = Welsh</text>
</g>
<!-- 1329&#45;&gt;1330 -->
<g id="edge10" class="edge">
<title>1329&#45;&gt;1330</title>
<path fill="none" stroke="black" d="M1114.55,-205.97C1099.21,-196.14 1082.98,-185.74 1067.35,-175.73"/>
<polygon fill="black" stroke="black" points="1069.05,-172.66 1058.74,-170.21 1065.27,-178.56 1069.05,-172.66"/>
</g>
<!-- 1447 -->
<g id="node14" class="node">
<title>1447</title>
<polygon fill="#d3d0f9" stroke="black" points="1544.5,-170 1176.5,-170 1176.5,-72 1544.5,-72 1544.5,-170"/>
<text text-anchor="middle" x="1360.5" y="-154.8" font-family="Helvetica,sans-Serif" font-size="14.00">y_percentage &lt;= 0.006</text>
<text text-anchor="middle" x="1360.5" y="-139.8" font-family="Helvetica,sans-Serif" font-size="14.00">gini = 0.63</text>
<text text-anchor="middle" x="1360.5" y="-124.8" font-family="Helvetica,sans-Serif" font-size="14.00">samples = 607</text>
<text text-anchor="middle" x="1360.5" y="-109.8" font-family="Helvetica,sans-Serif" font-size="14.00">value = [0, 0, 198, 11, 0, 0, 100, 0, 0, 3, 0, 295, 0</text>
<text text-anchor="middle" x="1360.5" y="-94.8" font-family="Helvetica,sans-Serif" font-size="14.00">0, 0, 0, 0, 0]</text>
<text text-anchor="middle" x="1360.5" y="-79.8" font-family="Helvetica,sans-Serif" font-size="14.00">class = Polish</text>
</g>
<!-- 1329&#45;&gt;1447 -->
<g id="edge13" class="edge">
<title>1329&#45;&gt;1447</title>
<path fill="none" stroke="black" d="M1251.72,-205.97C1264.1,-196.42 1277.18,-186.32 1289.81,-176.57"/>
<polygon fill="black" stroke="black" points="1292.26,-179.1 1298.04,-170.21 1287.99,-173.55 1292.26,-179.1"/>
</g>
<!-- 1331 -->
<g id="node12" class="node">
<title>1331</title>
<polygon fill="#c0c0c0" stroke="black" points="974.5,-36 920.5,-36 920.5,0 974.5,0 974.5,-36"/>
<text text-anchor="middle" x="947.5" y="-14.3" font-family="Helvetica,sans-Serif" font-size="14.00">(...)</text>
</g>
<!-- 1330&#45;&gt;1331 -->
<g id="edge11" class="edge">
<title>1330&#45;&gt;1331</title>
<path fill="none" stroke="black" d="M966.34,-71.87C963.13,-62.86 959.89,-53.76 957.02,-45.71"/>
<polygon fill="black" stroke="black" points="960.27,-44.39 953.61,-36.15 953.67,-46.74 960.27,-44.39"/>
</g>
<!-- 1428 -->
<g id="node13" class="node">
<title>1428</title>
<polygon fill="#c0c0c0" stroke="black" points="1046.5,-36 992.5,-36 992.5,0 1046.5,0 1046.5,-36"/>
<text text-anchor="middle" x="1019.5" y="-14.3" font-family="Helvetica,sans-Serif" font-size="14.00">(...)</text>
</g>
<!-- 1330&#45;&gt;1428 -->
<g id="edge12" class="edge">
<title>1330&#45;&gt;1428</title>
<path fill="none" stroke="black" d="M1000.66,-71.87C1003.87,-62.86 1007.11,-53.76 1009.98,-45.71"/>
<polygon fill="black" stroke="black" points="1013.33,-46.74 1013.39,-36.15 1006.73,-44.39 1013.33,-46.74"/>
</g>
<!-- 1448 -->
<g id="node15" class="node">
<title>1448</title>
<polygon fill="#c0c0c0" stroke="black" points="1351.5,-36 1297.5,-36 1297.5,0 1351.5,0 1351.5,-36"/>
<text text-anchor="middle" x="1324.5" y="-14.3" font-family="Helvetica,sans-Serif" font-size="14.00">(...)</text>
</g>
<!-- 1447&#45;&gt;1448 -->
<g id="edge14" class="edge">
<title>1447&#45;&gt;1448</title>
<path fill="none" stroke="black" d="M1343.34,-71.87C1340.13,-62.86 1336.89,-53.76 1334.02,-45.71"/>
<polygon fill="black" stroke="black" points="1337.27,-44.39 1330.61,-36.15 1330.67,-46.74 1337.27,-44.39"/>
</g>
<!-- 1495 -->
<g id="node16" class="node">
<title>1495</title>
<polygon fill="#c0c0c0" stroke="black" points="1423.5,-36 1369.5,-36 1369.5,0 1423.5,0 1423.5,-36"/>
<text text-anchor="middle" x="1396.5" y="-14.3" font-family="Helvetica,sans-Serif" font-size="14.00">(...)</text>
</g>
<!-- 1447&#45;&gt;1495 -->
<g id="edge15" class="edge">
<title>1447&#45;&gt;1495</title>
<path fill="none" stroke="black" d="M1377.66,-71.87C1380.87,-62.86 1384.11,-53.76 1386.98,-45.71"/>
<polygon fill="black" stroke="black" points="1390.33,-46.74 1390.39,-36.15 1383.73,-44.39 1390.33,-46.74"/>
</g>
<!-- 1509 -->
<g id="node18" class="node">
<title>1509</title>
<polygon fill="#7ae955" stroke="black" points="2072,-304 1731,-304 1731,-206 2072,-206 2072,-304"/>
<text text-anchor="middle" x="1901.5" y="-288.8" font-family="Helvetica,sans-Serif" font-size="14.00">g_percentage &lt;= 0.017</text>
<text text-anchor="middle" x="1901.5" y="-273.8" font-family="Helvetica,sans-Serif" font-size="14.00">gini = 0.232</text>
<text text-anchor="middle" x="1901.5" y="-258.8" font-family="Helvetica,sans-Serif" font-size="14.00">samples = 327</text>
<text text-anchor="middle" x="1901.5" y="-243.8" font-family="Helvetica,sans-Serif" font-size="14.00">value = [0, 0, 0, 0, 285, 0, 9, 0, 0, 0, 0, 0, 0, 4</text>
<text text-anchor="middle" x="1901.5" y="-228.8" font-family="Helvetica,sans-Serif" font-size="14.00">0, 29, 0, 0]</text>
<text text-anchor="middle" x="1901.5" y="-213.8" font-family="Helvetica,sans-Serif" font-size="14.00">class = Finnish</text>
</g>
<!-- 1508&#45;&gt;1509 -->
<g id="edge17" class="edge">
<title>1508&#45;&gt;1509</title>
<path fill="none" stroke="black" d="M1901.5,-339.97C1901.5,-331.69 1901.5,-323 1901.5,-314.48"/>
<polygon fill="black" stroke="black" points="1905,-314.21 1901.5,-304.21 1898,-314.21 1905,-314.21"/>
</g>
<!-- 1526 -->
<g id="node25" class="node">
<title>1526</title>
<polygon fill="#eb64b2" stroke="black" points="2600,-304 2259,-304 2259,-206 2600,-206 2600,-304"/>
<text text-anchor="middle" x="2429.5" y="-288.8" font-family="Helvetica,sans-Serif" font-size="14.00">w_percentage &lt;= 0.004</text>
<text text-anchor="middle" x="2429.5" y="-273.8" font-family="Helvetica,sans-Serif" font-size="14.00">gini = 0.332</text>
<text text-anchor="middle" x="2429.5" y="-258.8" font-family="Helvetica,sans-Serif" font-size="14.00">samples = 310</text>
<text text-anchor="middle" x="2429.5" y="-243.8" font-family="Helvetica,sans-Serif" font-size="14.00">value = [0, 0, 0, 0, 22, 0, 34, 0, 0, 0, 0, 0, 0, 4</text>
<text text-anchor="middle" x="2429.5" y="-228.8" font-family="Helvetica,sans-Serif" font-size="14.00">0, 250, 0, 0]</text>
<text text-anchor="middle" x="2429.5" y="-213.8" font-family="Helvetica,sans-Serif" font-size="14.00">class = Swedish</text>
</g>
<!-- 1508&#45;&gt;1526 -->
<g id="edge24" class="edge">
<title>1508&#45;&gt;1526</title>
<path fill="none" stroke="black" d="M2076.58,-344.23C2131.95,-330.39 2193.22,-315.07 2248.95,-301.14"/>
<polygon fill="black" stroke="black" points="2250.08,-304.46 2258.93,-298.64 2248.38,-297.67 2250.08,-304.46"/>
</g>
<!-- 1510 -->
<g id="node19" class="node">
<title>1510</title>
<polygon fill="#69e640" stroke="black" points="1904,-170 1563,-170 1563,-72 1904,-72 1904,-170"/>
<text text-anchor="middle" x="1733.5" y="-154.8" font-family="Helvetica,sans-Serif" font-size="14.00">b_percentage &lt;= 0.006</text>
<text text-anchor="middle" x="1733.5" y="-139.8" font-family="Helvetica,sans-Serif" font-size="14.00">gini = 0.066</text>
<text text-anchor="middle" x="1733.5" y="-124.8" font-family="Helvetica,sans-Serif" font-size="14.00">samples = 295</text>
<text text-anchor="middle" x="1733.5" y="-109.8" font-family="Helvetica,sans-Serif" font-size="14.00">value = [0, 0, 0, 0, 285, 0, 1, 0, 0, 0, 0, 0, 0, 4</text>
<text text-anchor="middle" x="1733.5" y="-94.8" font-family="Helvetica,sans-Serif" font-size="14.00">0, 5, 0, 0]</text>
<text text-anchor="middle" x="1733.5" y="-79.8" font-family="Helvetica,sans-Serif" font-size="14.00">class = Finnish</text>
</g>
<!-- 1509&#45;&gt;1510 -->
<g id="edge18" class="edge">
<title>1509&#45;&gt;1510</title>
<path fill="none" stroke="black" d="M1840.37,-205.97C1828.21,-196.42 1815.36,-186.32 1802.95,-176.57"/>
<polygon fill="black" stroke="black" points="1804.89,-173.64 1794.86,-170.21 1800.56,-179.14 1804.89,-173.64"/>
</g>
<!-- 1521 -->
<g id="node22" class="node">
<title>1521</title>
<polygon fill="#ee7bbe" stroke="black" points="2245,-170 1922,-170 1922,-72 2245,-72 2245,-170"/>
<text text-anchor="middle" x="2083.5" y="-154.8" font-family="Helvetica,sans-Serif" font-size="14.00">z_percentage &lt;= 0.002</text>
<text text-anchor="middle" x="2083.5" y="-139.8" font-family="Helvetica,sans-Serif" font-size="14.00">gini = 0.375</text>
<text text-anchor="middle" x="2083.5" y="-124.8" font-family="Helvetica,sans-Serif" font-size="14.00">samples = 32</text>
<text text-anchor="middle" x="2083.5" y="-109.8" font-family="Helvetica,sans-Serif" font-size="14.00">value = [0, 0, 0, 0, 0, 0, 8, 0, 0, 0, 0, 0, 0, 0</text>
<text text-anchor="middle" x="2083.5" y="-94.8" font-family="Helvetica,sans-Serif" font-size="14.00">0, 24, 0, 0]</text>
<text text-anchor="middle" x="2083.5" y="-79.8" font-family="Helvetica,sans-Serif" font-size="14.00">class = Swedish</text>
</g>
<!-- 1509&#45;&gt;1521 -->
<g id="edge21" class="edge">
<title>1509&#45;&gt;1521</title>
<path fill="none" stroke="black" d="M1967.72,-205.97C1981.02,-196.33 1995.08,-186.13 2008.65,-176.29"/>
<polygon fill="black" stroke="black" points="2010.98,-178.92 2017.02,-170.21 2006.87,-173.25 2010.98,-178.92"/>
</g>
<!-- 1511 -->
<g id="node20" class="node">
<title>1511</title>
<polygon fill="#c0c0c0" stroke="black" points="1724.5,-36 1670.5,-36 1670.5,0 1724.5,0 1724.5,-36"/>
<text text-anchor="middle" x="1697.5" y="-14.3" font-family="Helvetica,sans-Serif" font-size="14.00">(...)</text>
</g>
<!-- 1510&#45;&gt;1511 -->
<g id="edge19" class="edge">
<title>1510&#45;&gt;1511</title>
<path fill="none" stroke="black" d="M1716.34,-71.87C1713.13,-62.86 1709.89,-53.76 1707.02,-45.71"/>
<polygon fill="black" stroke="black" points="1710.27,-44.39 1703.61,-36.15 1703.67,-46.74 1710.27,-44.39"/>
</g>
<!-- 1516 -->
<g id="node21" class="node">
<title>1516</title>
<polygon fill="#c0c0c0" stroke="black" points="1796.5,-36 1742.5,-36 1742.5,0 1796.5,0 1796.5,-36"/>
<text text-anchor="middle" x="1769.5" y="-14.3" font-family="Helvetica,sans-Serif" font-size="14.00">(...)</text>
</g>
<!-- 1510&#45;&gt;1516 -->
<g id="edge20" class="edge">
<title>1510&#45;&gt;1516</title>
<path fill="none" stroke="black" d="M1750.66,-71.87C1753.87,-62.86 1757.11,-53.76 1759.98,-45.71"/>
<polygon fill="black" stroke="black" points="1763.33,-46.74 1763.39,-36.15 1756.73,-44.39 1763.33,-46.74"/>
</g>
<!-- 1522 -->
<g id="node23" class="node">
<title>1522</title>
<polygon fill="#c0c0c0" stroke="black" points="2074.5,-36 2020.5,-36 2020.5,0 2074.5,0 2074.5,-36"/>
<text text-anchor="middle" x="2047.5" y="-14.3" font-family="Helvetica,sans-Serif" font-size="14.00">(...)</text>
</g>
<!-- 1521&#45;&gt;1522 -->
<g id="edge22" class="edge">
<title>1521&#45;&gt;1522</title>
<path fill="none" stroke="black" d="M2066.34,-71.87C2063.13,-62.86 2059.89,-53.76 2057.02,-45.71"/>
<polygon fill="black" stroke="black" points="2060.27,-44.39 2053.61,-36.15 2053.67,-46.74 2060.27,-44.39"/>
</g>
<!-- 1525 -->
<g id="node24" class="node">
<title>1525</title>
<polygon fill="#c0c0c0" stroke="black" points="2146.5,-36 2092.5,-36 2092.5,0 2146.5,0 2146.5,-36"/>
<text text-anchor="middle" x="2119.5" y="-14.3" font-family="Helvetica,sans-Serif" font-size="14.00">(...)</text>
</g>
<!-- 1521&#45;&gt;1525 -->
<g id="edge23" class="edge">
<title>1521&#45;&gt;1525</title>
<path fill="none" stroke="black" d="M2100.66,-71.87C2103.87,-62.86 2107.11,-53.76 2109.98,-45.71"/>
<polygon fill="black" stroke="black" points="2113.33,-46.74 2113.39,-36.15 2106.73,-44.39 2113.33,-46.74"/>
</g>
<!-- 1527 -->
<g id="node26" class="node">
<title>1527</title>
<polygon fill="#e853aa" stroke="black" points="2595.5,-170 2263.5,-170 2263.5,-72 2595.5,-72 2595.5,-170"/>
<text text-anchor="middle" x="2429.5" y="-154.8" font-family="Helvetica,sans-Serif" font-size="14.00">d_percentage &lt;= 0.01</text>
<text text-anchor="middle" x="2429.5" y="-139.8" font-family="Helvetica,sans-Serif" font-size="14.00">gini = 0.223</text>
<text text-anchor="middle" x="2429.5" y="-124.8" font-family="Helvetica,sans-Serif" font-size="14.00">samples = 285</text>
<text text-anchor="middle" x="2429.5" y="-109.8" font-family="Helvetica,sans-Serif" font-size="14.00">value = [0, 0, 0, 0, 22, 0, 9, 0, 0, 0, 0, 0, 0, 4</text>
<text text-anchor="middle" x="2429.5" y="-94.8" font-family="Helvetica,sans-Serif" font-size="14.00">0, 250, 0, 0]</text>
<text text-anchor="middle" x="2429.5" y="-79.8" font-family="Helvetica,sans-Serif" font-size="14.00">class = Swedish</text>
</g>
<!-- 1526&#45;&gt;1527 -->
<g id="edge25" class="edge">
<title>1526&#45;&gt;1527</title>
<path fill="none" stroke="black" d="M2429.5,-205.97C2429.5,-197.69 2429.5,-189 2429.5,-180.48"/>
<polygon fill="black" stroke="black" points="2433,-180.21 2429.5,-170.21 2426,-180.21 2433,-180.21"/>
</g>
<!-- 1554 -->
<g id="node29" class="node">
<title>1554</title>
<polygon fill="#39e581" stroke="black" points="2945.5,-162.5 2613.5,-162.5 2613.5,-79.5 2945.5,-79.5 2945.5,-162.5"/>
<text text-anchor="middle" x="2779.5" y="-147.3" font-family="Helvetica,sans-Serif" font-size="14.00">gini = 0.0</text>
<text text-anchor="middle" x="2779.5" y="-132.3" font-family="Helvetica,sans-Serif" font-size="14.00">samples = 25</text>
<text text-anchor="middle" x="2779.5" y="-117.3" font-family="Helvetica,sans-Serif" font-size="14.00">value = [0, 0, 0, 0, 0, 0, 25, 0, 0, 0, 0, 0, 0, 0</text>
<text text-anchor="middle" x="2779.5" y="-102.3" font-family="Helvetica,sans-Serif" font-size="14.00">0, 0, 0, 0]</text>
<text text-anchor="middle" x="2779.5" y="-87.3" font-family="Helvetica,sans-Serif" font-size="14.00">class = German</text>
</g>
<!-- 1526&#45;&gt;1554 -->
<g id="edge28" class="edge">
<title>1526&#45;&gt;1554</title>
<path fill="none" stroke="black" d="M2556.85,-205.97C2591.33,-192.97 2628.48,-178.96 2662.37,-166.17"/>
<polygon fill="black" stroke="black" points="2663.72,-169.41 2671.84,-162.6 2661.25,-162.86 2663.72,-169.41"/>
</g>
<!-- 1528 -->
<g id="node27" class="node">
<title>1528</title>
<polygon fill="#c0c0c0" stroke="black" points="2420.5,-36 2366.5,-36 2366.5,0 2420.5,0 2420.5,-36"/>
<text text-anchor="middle" x="2393.5" y="-14.3" font-family="Helvetica,sans-Serif" font-size="14.00">(...)</text>
</g>
<!-- 1527&#45;&gt;1528 -->
<g id="edge26" class="edge">
<title>1527&#45;&gt;1528</title>
<path fill="none" stroke="black" d="M2412.34,-71.87C2409.13,-62.86 2405.89,-53.76 2403.02,-45.71"/>
<polygon fill="black" stroke="black" points="2406.27,-44.39 2399.61,-36.15 2399.67,-46.74 2406.27,-44.39"/>
</g>
<!-- 1539 -->
<g id="node28" class="node">
<title>1539</title>
<polygon fill="#c0c0c0" stroke="black" points="2492.5,-36 2438.5,-36 2438.5,0 2492.5,0 2492.5,-36"/>
<text text-anchor="middle" x="2465.5" y="-14.3" font-family="Helvetica,sans-Serif" font-size="14.00">(...)</text>
</g>
<!-- 1527&#45;&gt;1539 -->
<g id="edge27" class="edge">
<title>1527&#45;&gt;1539</title>
<path fill="none" stroke="black" d="M2446.66,-71.87C2449.87,-62.86 2453.11,-53.76 2455.98,-45.71"/>
<polygon fill="black" stroke="black" points="2459.33,-46.74 2459.39,-36.15 2452.73,-44.39 2459.33,-46.74"/>
</g>
</g>
</svg>
