<?xml version="1.0" encoding="UTF-8" standalone="no"?>
<!DOCTYPE svg PUBLIC "-//W3C//DTD SVG 1.1//EN"
 "http://www.w3.org/Graphics/SVG/1.1/DTD/svg11.dtd">
<!-- Generated by graphviz version 2.43.0 (0)
 -->
<!-- Title: Tree Pages: 1 -->
<svg width="1180pt" height="580pt"
 viewBox="0.00 0.00 1180.00 580.00" xmlns="http://www.w3.org/2000/svg" xmlns:xlink="http://www.w3.org/1999/xlink">
<g id="graph0" class="graph" transform="scale(1 1) rotate(0) translate(4 576)">
<title>Tree</title>
<polygon fill="white" stroke="transparent" points="-4,4 -4,-576 1176,-576 1176,4 -4,4"/>
<!-- 0 -->
<g id="node1" class="node">
<title>0</title>
<polygon fill="#ffffff" stroke="black" points="1017,-572 586,-572 586,-474 1017,-474 1017,-572"/>
<text text-anchor="middle" x="801.5" y="-556.8" font-family="Helvetica,sans-Serif" font-size="14.00">ð_percentage &lt;= 0.004</text>
<text text-anchor="middle" x="801.5" y="-541.8" font-family="Helvetica,sans-Serif" font-size="14.00">gini = 0.944</text>
<text text-anchor="middle" x="801.5" y="-526.8" font-family="Helvetica,sans-Serif" font-size="14.00">samples = 6139</text>
<text text-anchor="middle" x="801.5" y="-511.8" font-family="Helvetica,sans-Serif" font-size="14.00">value = [301, 344, 369, 358, 358, 328, 345, 305, 347, 366</text>
<text text-anchor="middle" x="801.5" y="-496.8" font-family="Helvetica,sans-Serif" font-size="14.00">333, 345, 373, 287, 315, 344, 367, 354]</text>
<text text-anchor="middle" x="801.5" y="-481.8" font-family="Helvetica,sans-Serif" font-size="14.00">class = Portuguese</text>
</g>
<!-- 1 -->
<g id="node2" class="node">
<title>1</title>
<polygon fill="#ffffff" stroke="black" points="812.5,-438 390.5,-438 390.5,-340 812.5,-340 812.5,-438"/>
<text text-anchor="middle" x="601.5" y="-422.8" font-family="Helvetica,sans-Serif" font-size="14.00">ı_percentage &lt;= 0.003</text>
<text text-anchor="middle" x="601.5" y="-407.8" font-family="Helvetica,sans-Serif" font-size="14.00">gini = 0.941</text>
<text text-anchor="middle" x="601.5" y="-392.8" font-family="Helvetica,sans-Serif" font-size="14.00">samples = 5825</text>
<text text-anchor="middle" x="601.5" y="-377.8" font-family="Helvetica,sans-Serif" font-size="14.00">value = [301, 344, 369, 358, 358, 328, 345, 305, 33, 366</text>
<text text-anchor="middle" x="601.5" y="-362.8" font-family="Helvetica,sans-Serif" font-size="14.00">333, 345, 373, 287, 315, 344, 367, 354]</text>
<text text-anchor="middle" x="601.5" y="-347.8" font-family="Helvetica,sans-Serif" font-size="14.00">class = Portuguese</text>
</g>
<!-- 0&#45;&gt;1 -->
<g id="edge1" class="edge">
<title>0&#45;&gt;1</title>
<path fill="none" stroke="black" d="M728.73,-473.97C713.84,-464.14 698.08,-453.74 682.91,-443.73"/>
<polygon fill="black" stroke="black" points="684.83,-440.8 674.55,-438.21 680.97,-446.64 684.83,-440.8"/>
<text text-anchor="middle" x="679.57" y="-459.01" font-family="Helvetica,sans-Serif" font-size="14.00">True</text>
</g>
<!-- 1556 -->
<g id="node11" class="node">
<title>1556</title>
<polygon fill="#39d7e5" stroke="black" points="1172,-430.5 831,-430.5 831,-347.5 1172,-347.5 1172,-430.5"/>
<text text-anchor="middle" x="1001.5" y="-415.3" font-family="Helvetica,sans-Serif" font-size="14.00">gini = 0.0</text>
<text text-anchor="middle" x="1001.5" y="-400.3" font-family="Helvetica,sans-Serif" font-size="14.00">samples = 314</text>
<text text-anchor="middle" x="1001.5" y="-385.3" font-family="Helvetica,sans-Serif" font-size="14.00">value = [0, 0, 0, 0, 0, 0, 0, 0, 314, 0, 0, 0, 0, 0</text>
<text text-anchor="middle" x="1001.5" y="-370.3" font-family="Helvetica,sans-Serif" font-size="14.00">0, 0, 0, 0]</text>
<text text-anchor="middle" x="1001.5" y="-355.3" font-family="Helvetica,sans-Serif" font-size="14.00">class = Icelandic</text>
</g>
<!-- 0&#45;&gt;1556 -->
<g id="edge10" class="edge">
<title>0&#45;&gt;1556</title>
<path fill="none" stroke="black" d="M874.27,-473.97C892.96,-461.63 913.03,-448.39 931.58,-436.15"/>
<polygon fill="black" stroke="black" points="933.56,-439.03 939.98,-430.6 929.71,-433.19 933.56,-439.03"/>
<text text-anchor="middle" x="934.96" y="-451.39" font-family="Helvetica,sans-Serif" font-size="14.00">False</text>
</g>
<!-- 2 -->
<g id="node3" class="node">
<title>2</title>
<polygon fill="#ffffff" stroke="black" points="617.5,-304 195.5,-304 195.5,-206 617.5,-206 617.5,-304"/>
<text text-anchor="middle" x="406.5" y="-288.8" font-family="Helvetica,sans-Serif" font-size="14.00">ä_percentage &lt;= 0.009</text>
<text text-anchor="middle" x="406.5" y="-273.8" font-family="Helvetica,sans-Serif" font-size="14.00">gini = 0.939</text>
<text text-anchor="middle" x="406.5" y="-258.8" font-family="Helvetica,sans-Serif" font-size="14.00">samples = 5513</text>
<text text-anchor="middle" x="406.5" y="-243.8" font-family="Helvetica,sans-Serif" font-size="14.00">value = [301, 344, 369, 358, 358, 328, 345, 305, 33, 366</text>
<text text-anchor="middle" x="406.5" y="-228.8" font-family="Helvetica,sans-Serif" font-size="14.00">333, 345, 373, 287, 315, 344, 55, 354]</text>
<text text-anchor="middle" x="406.5" y="-213.8" font-family="Helvetica,sans-Serif" font-size="14.00">class = Portuguese</text>
</g>
<!-- 1&#45;&gt;2 -->
<g id="edge2" class="edge">
<title>1&#45;&gt;2</title>
<path fill="none" stroke="black" d="M530.55,-339.97C516.17,-330.24 500.95,-319.93 486.28,-310.01"/>
<polygon fill="black" stroke="black" points="487.97,-306.92 477.73,-304.21 484.04,-312.72 487.97,-306.92"/>
</g>
<!-- 1555 -->
<g id="node10" class="node">
<title>1555</title>
<polygon fill="#e53964" stroke="black" points="959,-296.5 636,-296.5 636,-213.5 959,-213.5 959,-296.5"/>
<text text-anchor="middle" x="797.5" y="-281.3" font-family="Helvetica,sans-Serif" font-size="14.00">gini = 0.0</text>
<text text-anchor="middle" x="797.5" y="-266.3" font-family="Helvetica,sans-Serif" font-size="14.00">samples = 312</text>
<text text-anchor="middle" x="797.5" y="-251.3" font-family="Helvetica,sans-Serif" font-size="14.00">value = [0, 0, 0, 0, 0, 0, 0, 0, 0, 0, 0, 0, 0, 0</text>
<text text-anchor="middle" x="797.5" y="-236.3" font-family="Helvetica,sans-Serif" font-size="14.00">0, 0, 312, 0]</text>
<text text-anchor="middle" x="797.5" y="-221.3" font-family="Helvetica,sans-Serif" font-size="14.00">class = Turkish</text>
</g>
<!-- 1&#45;&gt;1555 -->
<g id="edge9" class="edge">
<title>1&#45;&gt;1555</title>
<path fill="none" stroke="black" d="M672.81,-339.97C690.97,-327.75 710.45,-314.63 728.48,-302.48"/>
<polygon fill="black" stroke="black" points="730.87,-305.09 737.21,-296.6 726.96,-299.29 730.87,-305.09"/>
</g>
<!-- 3 -->
<g id="node4" class="node">
<title>3</title>
<polygon fill="#ffffff" stroke="black" points="413,-170 0,-170 0,-72 413,-72 413,-170"/>
<text text-anchor="middle" x="206.5" y="-154.8" font-family="Helvetica,sans-Serif" font-size="14.00">w_percentage &lt;= 0.004</text>
<text text-anchor="middle" x="206.5" y="-139.8" font-family="Helvetica,sans-Serif" font-size="14.00">gini = 0.933</text>
<text text-anchor="middle" x="206.5" y="-124.8" font-family="Helvetica,sans-Serif" font-size="14.00">samples = 4876</text>
<text text-anchor="middle" x="206.5" y="-109.8" font-family="Helvetica,sans-Serif" font-size="14.00">value = [301, 344, 369, 358, 51, 328, 302, 305, 33, 366</text>
<text text-anchor="middle" x="206.5" y="-94.8" font-family="Helvetica,sans-Serif" font-size="14.00">333, 345, 373, 279, 315, 65, 55, 354]</text>
<text text-anchor="middle" x="206.5" y="-79.8" font-family="Helvetica,sans-Serif" font-size="14.00">class = Portuguese</text>
</g>
<!-- 2&#45;&gt;3 -->
<g id="edge3" class="edge">
<title>2&#45;&gt;3</title>
<path fill="none" stroke="black" d="M333.73,-205.97C318.84,-196.14 303.08,-185.74 287.91,-175.73"/>
<polygon fill="black" stroke="black" points="289.83,-172.8 279.55,-170.21 285.97,-178.64 289.83,-172.8"/>
</g>
<!-- 1508 -->
<g id="node7" class="node">
<title>1508</title>
<polygon fill="#f3fdf0" stroke="black" points="781.5,-170 431.5,-170 431.5,-72 781.5,-72 781.5,-170"/>
<text text-anchor="middle" x="606.5" y="-154.8" font-family="Helvetica,sans-Serif" font-size="14.00">r_percentage &lt;= 0.04</text>
<text text-anchor="middle" x="606.5" y="-139.8" font-family="Helvetica,sans-Serif" font-size="14.00">gini = 0.571</text>
<text text-anchor="middle" x="606.5" y="-124.8" font-family="Helvetica,sans-Serif" font-size="14.00">samples = 637</text>
<text text-anchor="middle" x="606.5" y="-109.8" font-family="Helvetica,sans-Serif" font-size="14.00">value = [0, 0, 0, 0, 307, 0, 43, 0, 0, 0, 0, 0, 0, 8</text>
<text text-anchor="middle" x="606.5" y="-94.8" font-family="Helvetica,sans-Serif" font-size="14.00">0, 279, 0, 0]</text>
<text text-anchor="middle" x="606.5" y="-79.8" font-family="Helvetica,sans-Serif" font-size="14.00">class = Finnish</text>
</g>
<!-- 2&#45;&gt;1508 -->
<g id="edge6" class="edge">
<title>2&#45;&gt;1508</title>
<path fill="none" stroke="black" d="M479.27,-205.97C494.16,-196.14 509.92,-185.74 525.09,-175.73"/>
<polygon fill="black" stroke="black" points="527.03,-178.64 533.45,-170.21 523.17,-172.8 527.03,-178.64"/>
</g>
<!-- 4 -->
<g id="node5" class="node">
<title>4</title>
<polygon fill="#c0c0c0" stroke="black" points="197.5,-36 143.5,-36 143.5,0 197.5,0 197.5,-36"/>
<text text-anchor="middle" x="170.5" y="-14.3" font-family="Helvetica,sans-Serif" font-size="14.00">(...)</text>
</g>
<!-- 3&#45;&gt;4 -->
<g id="edge4" class="edge">
<title>3&#45;&gt;4</title>
<path fill="none" stroke="black" d="M189.34,-71.87C186.13,-62.86 182.89,-53.76 180.02,-45.71"/>
<polygon fill="black" stroke="black" points="183.27,-44.39 176.61,-36.15 176.67,-46.74 183.27,-44.39"/>
</g>
<!-- 1329 -->
<g id="node6" class="node">
<title>1329</title>
<polygon fill="#c0c0c0" stroke="black" points="269.5,-36 215.5,-36 215.5,0 269.5,0 269.5,-36"/>
<text text-anchor="middle" x="242.5" y="-14.3" font-family="Helvetica,sans-Serif" font-size="14.00">(...)</text>
</g>
<!-- 3&#45;&gt;1329 -->
<g id="edge5" class="edge">
<title>3&#45;&gt;1329</title>
<path fill="none" stroke="black" d="M223.66,-71.87C226.87,-62.86 230.11,-53.76 232.98,-45.71"/>
<polygon fill="black" stroke="black" points="236.33,-46.74 236.39,-36.15 229.73,-44.39 236.33,-46.74"/>
</g>
<!-- 1509 -->
<g id="node8" class="node">
<title>1509</title>
<polygon fill="#c0c0c0" stroke="black" points="597.5,-36 543.5,-36 543.5,0 597.5,0 597.5,-36"/>
<text text-anchor="middle" x="570.5" y="-14.3" font-family="Helvetica,sans-Serif" font-size="14.00">(...)</text>
</g>
<!-- 1508&#45;&gt;1509 -->
<g id="edge7" class="edge">
<title>1508&#45;&gt;1509</title>
<path fill="none" stroke="black" d="M589.34,-71.87C586.13,-62.86 582.89,-53.76 580.02,-45.71"/>
<polygon fill="black" stroke="black" points="583.27,-44.39 576.61,-36.15 576.67,-46.74 583.27,-44.39"/>
</g>
<!-- 1526 -->
<g id="node9" class="node">
<title>1526</title>
<polygon fill="#c0c0c0" stroke="black" points="669.5,-36 615.5,-36 615.5,0 669.5,0 669.5,-36"/>
<text text-anchor="middle" x="642.5" y="-14.3" font-family="Helvetica,sans-Serif" font-size="14.00">(...)</text>
</g>
<!-- 1508&#45;&gt;1526 -->
<g id="edge8" class="edge">
<title>1508&#45;&gt;1526</title>
<path fill="none" stroke="black" d="M623.66,-71.87C626.87,-62.86 630.11,-53.76 632.98,-45.71"/>
<polygon fill="black" stroke="black" points="636.33,-46.74 636.39,-36.15 629.73,-44.39 636.33,-46.74"/>
</g>
</g>
</svg>
